<?xml version="1.0" encoding="UTF-8"?>
<svg xmlns="http://www.w3.org/2000/svg" xmlns:xlink="http://www.w3.org/1999/xlink" width="120px" height="40px" viewBox="0 0 120 40" version="1.1">
<defs>
<linearGradient id="linear0" gradientUnits="userSpaceOnUse" x1="1682.1077" y1="1339.4783" x2="1624.2924" y2="1309.6345" gradientTransform="matrix(0.256954,0,0,-0.562344,-412.92485,761.954342)">
<stop offset="0" style="stop-color:rgb(0%,62.745098%,100%);stop-opacity:1;"/>
<stop offset="0.00657" style="stop-color:rgb(0%,63.137255%,100%);stop-opacity:1;"/>
<stop offset="0.2601" style="stop-color:rgb(0%,74.509804%,100%);stop-opacity:1;"/>
<stop offset="0.5122" style="stop-color:rgb(0%,82.352941%,100%);stop-opacity:1;"/>
<stop offset="0.7604" style="stop-color:rgb(0%,87.45098%,100%);stop-opacity:1;"/>
<stop offset="1" style="stop-color:rgb(0%,89.019608%,100%);stop-opacity:1;"/>
</linearGradient>
<linearGradient id="linear1" gradientUnits="userSpaceOnUse" x1="1712.6624" y1="1274.8376" x2="1606.5613" y2="1274.8376" gradientTransform="matrix(0.201876,0,0,-0.19202,-315.793336,264.794289)">
<stop offset="0" style="stop-color:rgb(100%,87.843137%,0%);stop-opacity:1;"/>
<stop offset="0.4087" style="stop-color:rgb(100%,74.117647%,0%);stop-opacity:1;"/>
<stop offset="0.7754" style="stop-color:rgb(100%,64.705882%,0%);stop-opacity:1;"/>
<stop offset="1" style="stop-color:rgb(100%,61.176471%,0%);stop-opacity:1;"/>
</linearGradient>
<linearGradient id="linear2" gradientUnits="userSpaceOnUse" x1="1707.4414" y1="1290.0475" x2="1646.682" y2="1211.2225" gradientTransform="matrix(0.331567,0,0,-0.288716,-544.152947,394.754324)">
<stop offset="0" style="stop-color:rgb(100%,22.745098%,26.666667%);stop-opacity:1;"/>
<stop offset="1" style="stop-color:rgb(76.470588%,6.666667%,38.431373%);stop-opacity:1;"/>
</linearGradient>
<linearGradient id="linear3" gradientUnits="userSpaceOnUse" x1="1660.6357" y1="1365.6676" x2="1687.767" y2="1330.4501" gradientTransform="matrix(0.331567,0,0,-0.288566,-544.152947,394.264145)">
<stop offset="0" style="stop-color:rgb(19.607843%,62.745098%,44.313725%);stop-opacity:1;"/>
<stop offset="0.0685" style="stop-color:rgb(17.647059%,65.490196%,44.313725%);stop-opacity:1;"/>
<stop offset="0.4762" style="stop-color:rgb(8.235294%,81.176471%,45.490196%);stop-opacity:1;"/>
<stop offset="0.8009" style="stop-color:rgb(2.352941%,90.588235%,45.882353%);stop-opacity:1;"/>
<stop offset="1" style="stop-color:rgb(0%,94.117647%,46.27451%);stop-opacity:1;"/>
</linearGradient>
<filter id="alpha" filterUnits="objectBoundingBox" x="0%" y="0%" width="100%" height="100%">
  <feColorMatrix type="matrix" in="SourceGraphic" values="0 0 0 0 1 0 0 0 0 1 0 0 0 0 1 0 0 0 1 0"/>
</filter>
<mask id="mask0">
  <g filter="url(#alpha)">
<rect x="0" y="0" width="120" height="40" style="fill:rgb(0%,0%,0%);fill-opacity:0.2;stroke:none;"/>
  </g>
</mask>
<clipPath id="clip1">
  <rect x="0" y="0" width="121" height="40"/>
</clipPath>
<g id="surface5" clip-path="url(#clip1)">
<path style=" stroke:none;fill-rule:evenodd;fill:rgb(0%,0%,0%);fill-opacity:1;" d="M 23.929688 24.132812 L 11.085938 32.375 C 10.367188 32.84375 9.726562 32.808594 9.316406 32.386719 L 9.246094 32.464844 L 9.316406 32.53125 C 9.726562 32.953125 10.367188 32.988281 11.085938 32.519531 L 24.019531 24.222656 C 24.019531 24.222656 23.929688 24.132812 23.929688 24.132812 Z M 23.929688 24.132812 "/>
</g>
<mask id="mask1">
  <g filter="url(#alpha)">
<rect x="0" y="0" width="120" height="40" style="fill:rgb(0%,0%,0%);fill-opacity:0.121569;stroke:none;"/>
  </g>
</mask>
<clipPath id="clip2">
  <rect x="0" y="0" width="121" height="40"/>
</clipPath>
<g id="surface8" clip-path="url(#clip2)">
<path style=" stroke:none;fill-rule:evenodd;fill:rgb(0%,0%,0%);fill-opacity:1;" d="M 28.335938 21.300781 L 23.921875 24.132812 L 24 24.222656 L 28.328125 21.445312 C 28.945312 21.042969 29.25 20.519531 29.25 20 C 29.214844 20.480469 28.898438 20.933594 28.335938 21.300781 Z M 28.335938 21.300781 "/>
</g>
<mask id="mask2">
  <g filter="url(#alpha)">
<rect x="0" y="0" width="120" height="40" style="fill:rgb(0%,0%,0%);fill-opacity:0.25098;stroke:none;"/>
  </g>
</mask>
<clipPath id="clip3">
  <rect x="0" y="0" width="121" height="40"/>
</clipPath>
<g id="surface11" clip-path="url(#clip3)">
<path style=" stroke:none;fill-rule:evenodd;fill:rgb(100%,100%,100%);fill-opacity:1;" d="M 11.078125 7.625 L 28.335938 18.699219 C 28.898438 19.058594 29.214844 19.523438 29.261719 20 C 29.261719 19.480469 28.957031 18.957031 28.335938 18.554688 L 11.078125 7.480469 C 9.839844 6.679688 8.835938 7.347656 8.835938 8.945312 L 8.835938 9.089844 C 8.835938 7.488281 9.839844 6.832031 11.078125 7.625 Z M 11.078125 7.625 "/>
</g>
</defs>
<g id="surface1">
<path style=" stroke:none;fill-rule:evenodd;fill:rgb(0%,0%,0%);fill-opacity:1;" d="M 115.550781 40 L 4.449219 40 C 1.996094 40 0.00390625 37.746094 0.00390625 35 L 0.00390625 5 C 0.00390625 2.246094 1.996094 0 4.449219 0 L 115.550781 0 C 118 0 119.996094 2.246094 119.996094 5 L 119.996094 35 C 119.996094 37.746094 118 40 115.550781 40 Z M 115.550781 40 "/>
<path style=" stroke:none;fill-rule:evenodd;fill:rgb(65.098039%,65.098039%,65.098039%);fill-opacity:1;" d="M 115.550781 0.800781 C 117.605469 0.800781 119.289062 2.6875 119.289062 5 L 119.289062 35 C 119.289062 37.3125 117.617188 39.199219 115.550781 39.199219 L 4.449219 39.199219 C 2.394531 39.199219 0.710938 37.3125 0.710938 35 L 0.710938 5 C 0.710938 2.6875 2.382812 0.800781 4.449219 0.800781 C 4.449219 0.800781 115.550781 0.800781 115.550781 0.800781 Z M 115.550781 0 L 4.449219 0 C 1.996094 0 0.00390625 2.253906 0.00390625 5 L 0.00390625 35 C 0.00390625 37.753906 1.996094 40 4.449219 40 L 115.550781 40 C 118 40 119.996094 37.753906 119.996094 35 L 119.996094 5 C 119.996094 2.253906 118 0 115.550781 0 Z M 115.550781 0 "/>
<path style=" stroke:none;fill-rule:nonzero;fill:rgb(100%,100%,100%);fill-opacity:1;" d="M 63.214844 13.230469 C 62.414062 13.230469 61.738281 12.914062 61.207031 12.292969 C 60.675781 11.6875 60.378906 10.851562 60.394531 9.996094 C 60.394531 9.085938 60.667969 8.316406 61.207031 7.707031 C 61.738281 7.082031 62.414062 6.765625 63.214844 6.765625 C 64.007812 6.765625 64.683594 7.082031 65.226562 7.707031 C 65.765625 8.335938 66.039062 9.105469 66.039062 9.996094 C 66.027344 10.910156 65.753906 11.679688 65.226562 12.289062 C 64.691406 12.917969 64.019531 13.230469 63.214844 13.230469 Z M 39.375 13.230469 C 38.589844 13.230469 37.910156 12.921875 37.351562 12.304688 C 36.800781 11.691406 36.519531 10.914062 36.519531 10 C 36.519531 9.085938 36.800781 8.308594 37.351562 7.695312 C 37.898438 7.078125 38.578125 6.769531 39.375 6.769531 C 39.761719 6.769531 40.140625 6.855469 40.5 7.03125 C 40.855469 7.203125 41.144531 7.4375 41.359375 7.726562 L 41.414062 7.796875 L 40.816406 8.460938 L 40.753906 8.378906 C 40.414062 7.925781 39.960938 7.703125 39.363281 7.703125 C 38.828125 7.703125 38.363281 7.917969 37.980469 8.339844 C 37.59375 8.769531 37.398438 9.328125 37.398438 10.003906 C 37.398438 10.679688 37.59375 11.238281 37.980469 11.664062 C 38.363281 12.085938 38.828125 12.300781 39.363281 12.300781 C 39.933594 12.300781 40.414062 12.085938 40.785156 11.664062 C 41.007812 11.414062 41.144531 11.066406 41.191406 10.625 L 39.273438 10.625 L 39.273438 9.691406 L 42.015625 9.691406 L 42.027344 9.777344 C 42.046875 9.933594 42.066406 10.09375 42.066406 10.246094 C 42.066406 11.105469 41.835938 11.800781 41.382812 12.3125 C 40.867188 12.921875 40.191406 13.230469 39.375 13.230469 Z M 71.074219 13.101562 L 70.230469 13.101562 L 67.640625 8.417969 L 67.664062 9.261719 L 67.664062 13.097656 L 66.816406 13.097656 L 66.816406 6.898438 L 67.78125 6.898438 L 67.808594 6.949219 L 70.242188 11.355469 L 70.222656 10.515625 L 70.222656 6.898438 L 71.074219 6.898438 Z M 56.863281 13.101562 L 56.007812 13.101562 L 56.007812 7.832031 L 54.519531 7.832031 L 54.519531 6.898438 L 58.347656 6.898438 L 58.347656 7.832031 L 56.859375 7.832031 L 56.859375 13.101562 Z M 53.824219 13.101562 L 52.96875 13.101562 L 52.96875 6.898438 L 53.824219 6.898438 Z M 49.023438 13.101562 L 48.167969 13.101562 L 48.167969 7.832031 L 46.683594 7.832031 L 46.683594 6.898438 L 50.507812 6.898438 L 50.507812 7.832031 L 49.023438 7.832031 Z M 46.140625 13.089844 L 42.867188 13.089844 L 42.867188 6.898438 L 46.140625 6.898438 L 46.140625 7.832031 L 43.722656 7.832031 L 43.722656 9.535156 L 45.90625 9.535156 L 45.90625 10.457031 L 43.722656 10.457031 L 43.722656 12.15625 L 46.140625 12.15625 Z M 61.832031 11.652344 C 62.214844 12.082031 62.675781 12.300781 63.214844 12.300781 C 63.769531 12.300781 64.222656 12.085938 64.601562 11.652344 C 64.976562 11.226562 65.164062 10.671875 65.164062 10 C 65.164062 9.328125 64.976562 8.769531 64.601562 8.347656 C 64.222656 7.917969 63.753906 7.699219 63.21875 7.699219 C 62.664062 7.699219 62.210938 7.914062 61.835938 8.347656 C 61.460938 8.773438 61.273438 9.328125 61.273438 10 C 61.273438 10.671875 61.460938 11.230469 61.832031 11.652344 Z M 61.832031 11.652344 "/>
<path style=" stroke:none;fill-rule:evenodd;fill:rgb(100%,100%,100%);fill-opacity:1;" d="M 60.3125 21.753906 C 58.226562 21.753906 56.535156 23.542969 56.535156 26.011719 C 56.535156 28.453125 58.238281 30.265625 60.3125 30.265625 C 62.398438 30.265625 64.089844 28.464844 64.089844 26.011719 C 64.089844 23.542969 62.398438 21.753906 60.3125 21.753906 Z M 60.3125 28.578125 C 59.171875 28.578125 58.191406 27.511719 58.191406 26 C 58.191406 24.464844 59.175781 23.421875 60.3125 23.421875 C 61.453125 23.421875 62.4375 24.464844 62.4375 26 C 62.4375 27.519531 61.453125 28.578125 60.3125 28.578125 Z M 52.074219 21.753906 C 49.988281 21.753906 48.296875 23.542969 48.296875 26.011719 C 48.296875 28.453125 49.996094 30.265625 52.074219 30.265625 C 54.160156 30.265625 55.851562 28.464844 55.851562 26.011719 C 55.851562 23.542969 54.15625 21.753906 52.074219 21.753906 Z M 52.074219 28.578125 C 50.929688 28.578125 49.949219 27.511719 49.949219 26 C 49.949219 24.464844 50.933594 23.421875 52.074219 23.421875 C 53.214844 23.421875 54.195312 24.464844 54.195312 26 C 54.195312 27.519531 53.214844 28.578125 52.074219 28.578125 Z M 42.265625 23.054688 L 42.265625 24.855469 L 46.09375 24.855469 C 45.976562 25.867188 45.679688 26.609375 45.226562 27.121094 C 44.667969 27.753906 43.800781 28.445312 42.277344 28.445312 C 39.925781 28.445312 38.085938 26.300781 38.085938 23.644531 C 38.085938 20.988281 39.925781 18.84375 42.277344 18.84375 C 43.546875 18.84375 44.46875 19.410156 45.15625 20.132812 L 46.285156 18.855469 C 45.332031 17.824219 44.0625 17.03125 42.285156 17.03125 C 39.058594 17.03125 36.351562 20 36.351562 23.632812 C 36.351562 27.277344 39.058594 30.234375 42.285156 30.234375 C 44.027344 30.234375 45.332031 29.589844 46.367188 28.378906 C 47.417969 27.191406 47.753906 25.511719 47.753906 24.15625 C 47.753906 23.734375 47.722656 23.355469 47.664062 23.035156 L 42.265625 23.035156 C 42.265625 23.03125 42.265625 23.054688 42.265625 23.054688 Z M 82.375 24.457031 C 82.058594 23.5 81.105469 21.746094 79.148438 21.746094 C 77.210938 21.746094 75.601562 23.46875 75.601562 26 C 75.601562 28.390625 77.195312 30.253906 79.335938 30.253906 C 81.058594 30.253906 82.0625 29.066406 82.476562 28.367188 L 81.195312 27.398438 C 80.773438 28.109375 80.183594 28.574219 79.347656 28.574219 C 78.5 28.574219 77.910156 28.140625 77.515625 27.285156 L 82.550781 24.929688 C 82.550781 24.933594 82.375 24.457031 82.375 24.457031 Z M 77.242188 25.878906 C 77.199219 24.234375 78.371094 23.398438 79.207031 23.398438 C 79.867188 23.398438 80.417969 23.765625 80.605469 24.300781 Z M 73.148438 30 L 74.804688 30 L 74.804688 17.5 L 73.148438 17.5 Z M 70.433594 22.699219 L 70.375 22.699219 C 70.003906 22.199219 69.292969 21.746094 68.386719 21.746094 C 66.511719 21.746094 64.777344 23.613281 64.777344 26.011719 C 64.777344 28.402344 66.5 30.246094 68.386719 30.246094 C 69.28125 30.246094 70.003906 29.789062 70.375 29.28125 L 70.433594 29.28125 L 70.433594 29.890625 C 70.433594 31.515625 69.667969 32.390625 68.429688 32.390625 C 67.414062 32.390625 66.785156 31.566406 66.53125 30.878906 L 65.09375 31.554688 C 65.503906 32.679688 66.605469 34.066406 68.425781 34.066406 C 70.363281 34.066406 72.007812 32.777344 72.007812 29.632812 L 72.007812 22 L 70.445312 22 L 70.445312 22.699219 C 70.445312 22.699219 70.433594 22.699219 70.433594 22.699219 Z M 68.535156 28.578125 C 67.394531 28.578125 66.441406 27.5 66.441406 26.011719 C 66.441406 24.511719 67.394531 23.425781 68.535156 23.425781 C 69.667969 23.425781 70.542969 24.523438 70.542969 26.011719 C 70.554688 27.5 69.667969 28.578125 68.535156 28.578125 Z M 90.117188 17.5 L 86.164062 17.5 L 86.164062 30 L 87.816406 30 L 87.816406 25.265625 L 90.121094 25.265625 C 91.949219 25.265625 93.75 23.769531 93.75 21.390625 C 93.75 19.011719 91.957031 17.5 90.117188 17.5 Z M 90.164062 23.519531 L 87.816406 23.519531 L 87.816406 19.230469 L 90.164062 19.230469 C 91.402344 19.230469 92.105469 20.386719 92.105469 21.375 C 92.105469 22.355469 91.394531 23.519531 90.164062 23.519531 Z M 100.375 21.734375 C 99.175781 21.734375 97.9375 22.335938 97.425781 23.644531 L 98.890625 24.332031 C 99.207031 23.644531 99.785156 23.410156 100.394531 23.410156 C 101.25 23.410156 102.117188 23.988281 102.136719 25.019531 L 102.136719 25.152344 C 101.839844 24.960938 101.191406 24.671875 100.414062 24.671875 C 98.832031 24.671875 97.226562 25.652344 97.226562 27.484375 C 97.226562 29.160156 98.523438 30.238281 99.972656 30.238281 C 101.082031 30.238281 101.691406 29.671875 102.074219 29.015625 L 102.132812 29.015625 L 102.132812 29.984375 L 103.726562 29.984375 L 103.726562 25.195312 C 103.726562 22.96875 102.261719 21.734375 100.375 21.734375 Z M 100.167969 28.578125 C 99.625 28.578125 98.871094 28.28125 98.871094 27.511719 C 98.871094 26.542969 99.816406 26.175781 100.621094 26.175781 C 101.347656 26.175781 101.691406 26.355469 102.125 26.597656 C 102.007812 27.71875 101.167969 28.570312 100.167969 28.578125 Z M 109.542969 22 L 107.644531 27.421875 L 107.585938 27.421875 L 105.617188 22 L 103.839844 22 L 106.789062 29.578125 L 105.109375 33.789062 L 106.828125 33.789062 L 111.371094 22 C 111.371094 22 109.542969 22 109.542969 22 Z M 94.660156 30 L 96.3125 30 L 96.3125 17.5 L 94.660156 17.5 Z M 94.660156 30 "/>
<path style=" stroke:none;fill-rule:evenodd;fill:url(#linear0);" d="M 9.238281 7.535156 C 8.980469 7.84375 8.835938 8.320312 8.835938 8.945312 L 8.835938 31.058594 C 8.835938 31.679688 8.980469 32.15625 9.246094 32.457031 L 9.316406 32.523438 L 20.28125 20.132812 L 20.28125 19.859375 L 9.308594 7.464844 C 9.308594 7.464844 9.238281 7.535156 9.238281 7.535156 Z M 9.238281 7.535156 "/>
<path style=" stroke:none;fill-rule:evenodd;fill:url(#linear1);" d="M 23.929688 24.277344 L 20.273438 20.144531 L 20.273438 19.855469 L 23.929688 15.722656 L 24.011719 15.777344 L 28.335938 18.554688 C 29.574219 19.34375 29.574219 20.644531 28.335938 21.445312 L 24.011719 24.222656 C 24.011719 24.222656 23.929688 24.277344 23.929688 24.277344 Z M 23.929688 24.277344 "/>
<path style=" stroke:none;fill-rule:evenodd;fill:url(#linear2);" d="M 24.011719 24.222656 L 20.273438 20 L 9.238281 32.464844 C 9.640625 32.957031 10.320312 33.011719 11.078125 32.535156 L 24.011719 24.222656 "/>
<path style=" stroke:none;fill-rule:evenodd;fill:url(#linear3);" d="M 24.011719 15.777344 L 11.078125 7.480469 C 10.320312 6.988281 9.640625 7.058594 9.238281 7.546875 L 20.273438 20 Z M 24.011719 15.777344 "/>
<use xlink:href="#surface5" mask="url(#mask0)"/>
<use xlink:href="#surface8" mask="url(#mask1)"/>
<use xlink:href="#surface11" mask="url(#mask2)"/>
</g>
</svg>
